<?xml version="1.0" encoding="utf-8"?>
<!DOCTYPE svg PUBLIC "-//W3C//DTD SVG 1.1//EN" "http://www.w3.org/Graphics/SVG/1.1/DTD/svg11.dtd">
<svg version="1.1" baseProfile="full"
 xmlns="http://www.w3.org/2000/svg"
 xmlns:xlink="http://www.w3.org/1999/xlink"
 xmlns:ev="http://www.w3.org/2001/xml-events" 
  height="34px" 
  width="34px" 
>
<path fill="rgb( 158, 147, 60 )"
 d="M17,34 C7.61099999999999,34 0,26.389 0,17 C0,7.61099999999999 7.61099999999999,0 17,0 C26.389,0 34,7.61099999999999 34,17 C34,26.389 26.389,34 17,34 ZM17,2.125 C8.78499999999997,2.125 2.125,8.78500000000003 2.125,17 C2.125,25.215 8.78499999999997,31.875 17,31.875 C25.215,31.875 31.875,25.215 31.875,17 C31.875,8.78500000000003 25.215,2.125 17,2.125 ZM25.399,17.487 C25.342,17.628 25.263,17.742 25.167,17.836 C25.163,17.841 25.162,17.846 25.158,17.85 C25.158,17.85 18.878,24.13 18.878,24.13 C18.444,24.564 17.741,24.564 17.308,24.13 C16.874,23.697 16.874,22.993 17.308,22.56 C17.308,22.56 21.805,18.063 21.805,18.063 C21.805,18.063 9.30999999999995,18.063 9.30999999999995,18.063 C8.86199999999997,18.063 8.5,17.587 8.5,17 C8.5,16.413 8.86199999999997,15.938 9.30999999999995,15.938 C9.30999999999995,15.938 21.872,15.938 21.872,15.938 C21.872,15.938 17.4930000000001,11.559 17.4930000000001,11.559 C17.079,11.144 17.079,10.471 17.4930000000001,10.056 C17.908,9.64100000000002 18.581,9.64100000000002 18.996,10.056 C18.996,10.056 24.9450000000001,16.005 24.9450000000001,16.005 C25.265,16.146 25.5,16.532 25.5,17 C25.5,17.176 25.46,17.334 25.402,17.48 C25.401,17.482 25.4,17.485 25.399,17.487 Z "/>
</svg>
